<svg xmlns="http://www.w3.org/2000/svg" xmlns:xlink="http://www.w3.org/1999/xlink" version="1.1" id="Layer_1" x="0px" y="0px" width="50px" height="50px" viewBox="0 0 50 50" enable-background="new 0 0 50 50" xml:space="preserve">
<g id="cloud_1_">
	<path fill="#000000" d="M38.129,17.617c-1.033-3.17-3.461-5.36-6.219-5.36c-0.974,0.007-1.959,0.256-2.864,0.8   c-1.85-2.476-4.6-3.918-7.566-3.918c-4.706,0-8.633,3.646-9.543,8.479c-2.128,0.231-4.105,1.073-5.623,2.493   C4.467,21.82,3.45,24.1,3.45,26.521c0,4.979,4.34,9.027,9.673,9.027h23.754c5.336,0,9.672-4.049,9.672-9.027   C46.55,21.976,42.857,18.204,38.129,17.617z M36.877,33.242H13.123c-4.061,0-7.364-3.016-7.364-6.721   c0-1.773,0.753-3.448,2.128-4.719c1.264-1.182,2.944-1.86,4.76-1.948h1.356c0-0.009-0.001-0.316,0.022-0.543   c0.227-4.41,3.499-7.861,7.454-7.861c2.54,0,4.883,1.433,6.276,3.835l0.712,1.228l1.057-0.946c0.737-0.664,1.514-0.997,2.319-0.997   c2.089,0.002,4.118,2.321,4.473,5.373l0.921-0.106c3.884,0.172,7.007,3.123,7.007,6.691C44.243,30.227,40.938,33.242,36.877,33.242   z"/>
</g>
</svg>